<?xml version="1.0" standalone="no"?>
<!DOCTYPE svg PUBLIC "-//W3C//DTD SVG 20010904//EN"
 "http://www.w3.org/TR/2001/REC-SVG-20010904/DTD/svg10.dtd">
<svg version="1.0" xmlns="http://www.w3.org/2000/svg"
 width="512.000000pt" height="512.000000pt" viewBox="0 0 512.000000 512.000000"
 preserveAspectRatio="xMidYMid meet">
<metadata>
Created by potrace 1.14, written by Peter Selinger 2001-2017
</metadata>
<g transform="translate(0.000000,512.000000) scale(0.100000,-0.100000)"
fill="#000000" stroke="none">
<path d="M2327 4664 c-1 -1 -33 -5 -72 -8 -170 -17 -305 -47 -480 -107 -530
-182 -965 -571 -1210 -1081 -55 -116 -127 -308 -140 -377 -2 -12 -7 -31 -10
-40 -9 -28 -34 -179 -43 -251 -9 -83 -9 -395 0 -481 7 -57 28 -170 57 -299 18
-80 87 -263 142 -377 206 -424 564 -780 989 -982 180 -85 334 -135 545 -176
207 -40 487 -40 705 0 119 22 131 25 205 47 39 12 75 22 80 24 11 2 108 39
140 53 324 142 567 333 796 627 115 148 259 462 335 729 29 105 106 308 217
575 5 14 11 30 13 35 1 6 30 76 64 157 69 167 79 212 56 256 -36 70 -145 133
-233 136 -84 2 -94 -13 -233 -354 -66 -161 -122 -296 -124 -297 -4 -5 -84 140
-256 465 -80 152 -103 180 -155 192 -35 8 -48 6 -100 -20 -109 -53 -165 -116
-165 -185 0 -38 51 -143 220 -450 92 -168 260 -485 260 -491 0 -16 -114 -281
-135 -314 -73 -116 -246 -303 -367 -396 -233 -180 -532 -300 -827 -331 -144
-15 -356 -6 -476 21 -16 3 -40 8 -52 10 -57 11 -176 49 -251 80 -510 212 -874
649 -987 1184 -43 207 -40 449 10 697 15 74 89 273 134 362 187 365 501 648
874 787 139 51 240 78 347 91 25 3 61 7 80 10 42 6 267 7 295 1 11 -2 47 -7
80 -11 109 -12 324 -69 337 -88 3 -6 10 -31 14 -56 13 -77 28 -120 71 -201 64
-120 151 -209 260 -263 46 -24 84 -35 163 -51 176 -34 422 -116 615 -207 39
-18 79 -37 89 -41 18 -8 19 -4 13 74 -4 46 -9 94 -12 108 -2 13 -7 42 -11 65
-3 22 -12 72 -21 110 -8 39 -17 81 -19 95 -21 110 -102 389 -131 450 -76 158
-256 283 -457 315 -17 3 -43 8 -57 11 -14 3 -73 7 -130 8 -88 3 -120 10 -208
40 -170 59 -333 96 -496 112 -62 6 -343 12 -348 8z"/>
<path d="M1950 3287 c-81 -21 -110 -85 -111 -244 -1 -86 19 -151 57 -185 33
-29 103 -38 322 -38 116 0 212 -3 211 -7 0 -5 -24 -28 -52 -52 -29 -24 -81
-71 -118 -105 -36 -34 -112 -104 -169 -156 -217 -199 -260 -243 -286 -295 -56
-116 -8 -259 107 -321 32 -18 69 -19 589 -20 592 -1 593 -1 647 48 31 29 46
114 41 229 -5 107 -23 145 -80 175 -48 25 -67 26 -337 27 l-254 0 85 81 c47
45 149 142 228 216 321 303 325 308 324 420 0 108 -69 205 -162 229 -47 12
-995 11 -1042 -2z"/>
</g>
</svg>
